<svg width="226" height="226" xmlns="http://www.w3.org/2000/svg" fill="none">

 <g>
  <title>Layer 1</title>
  <path id="svg_1" fill="#000000" d="m0,196.859c0,16.096 13.0471,29.141 29.1408,29.141l167.7172,0c16.097,0 29.142,-13.047 29.142,-29.141l0,-167.7174c0,-16.0963 -13.047,-29.1416 -29.141,-29.1416l-167.7174,0c-16.0963,0 -29.1416,13.0471 -29.1416,29.1408l0,167.7172l0,0.001z"/>
  <path id="svg_2" fill="white" d="m93.7177,99.9679l0,-32.0047l28.1713,0c2.684,0 5.271,0.2234 7.762,0.671c2.491,0.4467 4.696,1.2448 6.612,2.3951c1.916,1.1503 3.449,2.7473 4.6,4.791c1.149,2.0446 1.725,4.6639 1.725,7.857c0,5.7498 -1.725,9.9026 -5.175,12.4574c-3.45,2.5558 -7.858,3.8332 -13.224,3.8332l-30.4713,0l0,0zm-30.0889,-55.386l0,136.8361l66.3102,0c6.133,0 12.106,-0.766 17.919,-2.3c5.813,-1.533 10.987,-3.896 15.523,-7.09c4.535,-3.194 8.145,-7.315 10.828,-12.362c2.684,-5.047 4.025,-11.02 4.025,-17.919c0,-8.561 -2.077,-15.875 -6.228,-21.943c-4.153,-6.069 -10.446,-10.318 -18.879,-12.745c6.133,-2.938 10.765,-6.708 13.896,-11.3074c3.13,-4.5995 4.695,-10.3484 4.695,-17.2484c0,-6.3881 -1.054,-11.7538 -3.162,-16.0981c-2.109,-4.3435 -5.079,-7.8253 -8.912,-10.4446c-3.833,-2.6193 -8.432,-4.5041 -13.799,-5.6536c-5.366,-1.1503 -11.307,-1.725 -17.823,-1.725l-64.3932,0l0,0zm30.0889,113.4551l0,-37.563l32.7713,0c6.516,0 11.754,1.501 15.715,4.504c3.961,3.002 5.942,8.017 5.942,15.044c0,3.578 -0.608,6.516 -1.821,8.816c-1.214,2.3 -2.843,4.121 -4.888,5.462c-2.043,1.342 -4.408,2.3 -7.09,2.875c-2.684,0.574 -5.494,0.862 -8.433,0.862l-32.1963,0l0,0z"/>
 </g>
</svg>