<svg width="169" height="239" xmlns="http://www.w3.org/2000/svg" fill="none">

 <g>
  <title>Layer 1</title>
  <path id="svg_1" fill="#131313" d="m132.433,8.81443l-14.019,0l14.582,15.80877l0,7.5185l-30.041,0l0,-8.8049l14.582,0l-14.582,-15.8088l0,-7.528l29.487,0l-0.009,8.81443zm-35.4417,0l-14.0372,0l14.6002,15.80877l0,7.5185l-30.0497,0l0,-8.8049l14.5811,0l-14.5811,-15.8088l0,-7.528l29.4867,0l0,8.81443zm-35.0978,0.36211l-15.125,0l0,13.79816l15.125,0l0,9.1765l-25.8891,0l0,-32.1512l25.8891,0l0,9.17654z"/>
  <path id="svg_2" fill="#000000" d="m15.3827,219.085l-15.38276,-172.2587l169.00006,0l-15.402,172.2297l-69.203,19.154l-69.0123,-19.125z"/>
  <path id="svg_3" fill="#000000" d="m84.5,223.574l55.92,-15.485l13.15,-147.1786l-69.07,0l0,162.6636z"/>
  <path id="svg_4" fill="white" d="m84.5001,123.317l27.9979,0l1.928,-21.631l-29.9259,0l0,-21.117l53.0569,0l-0.506,5.6698l-5.2,58.2232l-47.3509,0l0,-21.145z"/>
  <path id="svg_5" fill="#EBEBEB" d="m84.6147,178.186l-0.0954,0l-23.5608,-6.356l-1.5078,-16.848l-21.2228,0l2.9678,33.171l43.3427,12.045l0.124,0l0,-22.012l-0.0477,0z"/>
  <path id="svg_6" fill="white" d="m110.704,143.538l-2.548,28.273l-23.5989,6.356l0,22.012l43.3709,-12.007l0.315,-3.573l3.684,-41.071l-21.223,0l0,0.01z"/>
  <path id="svg_7" fill="#EBEBEB" d="m84.5764,80.569l0,21.126l-51.0912,0l-0.439,-4.7454l-0.9638,-10.7108l-0.5057,-5.6698l52.9997,0zm-0.0763,42.748l0,21.126l-23.2936,0l-0.4103,-4.746l-0.9638,-10.711l-0.5058,-5.669l25.1639,0l0.0096,0z"/>
 </g>
</svg>