<svg width="169" height="239" xmlns="http://www.w3.org/2000/svg" fill="none">

 <g>
  <title>Layer 1</title>
  <path id="svg_1" fill="#000000" d="m15.3798,219.074l-15.3798,-172.2611l169,0l-15.397,172.2341l-69.2067,19.16l-69.0165,-19.133z"/>
  <path id="svg_2" fill="#000000" d="m84.4999,223.562l55.9221,-15.483l13.158,-147.1804l-69.0801,0l0,162.6634z"/>
  <path id="svg_3" fill="#EBEBEB" d="m84.5001,124.788l-27.9956,0l-1.9339,-21.635l29.9295,0l0,-21.1272l-53.0521,0l0.507,5.668l5.1998,58.2202l47.3453,0l0,-21.126zm0,54.868l-0.0929,0.026l-23.5625,-6.354l-1.5064,-16.849l-21.2379,0l2.9644,33.172l43.3385,12.014l0.0968,-0.027l0,-21.982z"/>
  <path id="svg_4" fill="black" d="m15.7239,0l10.7515,0l0,10.6074l9.835,0l0,-10.6074l10.7519,0l0,32.1222l-10.7519,0l0,-10.7562l-9.835,0l0,10.7562l-10.7507,0l-0.0008,-32.1222zm45.4779,10.6527l-9.4647,0l0,-10.6527l29.6875,0l0,10.6527l-9.4694,0l0,21.4695l-10.753,0l0,-21.4695l-0.0004,0zm24.9337,-10.6527l11.2116,0l6.8959,11.2871l6.89,-11.2871l11.216,0l0,32.1222l-10.71,0l0,-15.9219l-7.397,11.4213l-0.184,0l-7.4027,-11.4213l0,15.9219l-10.5202,0l0,-32.1222l0.0004,0zm41.5635,0l10.754,0l0,21.5048l15.121,0l0,10.6174l-25.875,0l0,-32.1222z"/>
  <path id="svg_5" fill="white" d="m84.427,124.788l0,21.126l26.053,0l-2.456,27.401l-23.597,6.359l0,21.98l43.373,-12.003l0.317,-3.57l4.973,-55.62l0.516,-5.673l-5.701,0l-43.478,0zm0,-42.7622l0,21.1272l51.104,0l0.424,-4.7489l0.964,-10.7103l0.506,-5.668l-52.998,0z"/>
 </g>
</svg>