<svg width="191" height="191" xmlns="http://www.w3.org/2000/svg" fill="none">

 <g>
  <title>Layer 1</title>
  <path id="svg_1" fill="#000000" d="m0,0l191,0l0,191l-191,0l0,-191z"/>
  <path id="svg_2" fill="#ffffff" d="m175.368,145.447c-1.398,-8.715 -7.081,-16.032 -23.912,-22.858c-5.846,-2.688 -12.364,-4.612 -14.306,-9.042c-0.69,-2.578 -0.781,-4.031 -0.345,-5.592c1.252,-5.066 7.298,-6.645 12.091,-5.193c3.087,1.035 6.01,3.414 7.771,7.208c8.243,-5.337 8.225,-5.301 13.98,-8.969c-2.106,-3.2676 -3.232,-4.7747 -4.611,-6.1725c-4.957,-5.5376 -11.711,-8.388 -22.514,-8.1702c-1.87,0.2361 -3.758,0.4901 -5.628,0.7263c-5.392,1.3617 -10.53,4.194 -13.544,7.9886c-9.042,10.2578 -6.464,28.2138 4.539,35.6038c10.839,8.134 26.761,9.985 28.795,17.593c1.979,9.314 -6.845,12.327 -15.614,11.256c-6.464,-1.343 -10.058,-4.629 -13.944,-10.603c-7.153,4.14 -7.153,4.14 -14.506,8.37c1.743,3.813 3.576,5.538 6.5,8.842c13.834,14.035 48.457,13.345 54.667,-7.898c0.254,-0.726 1.924,-5.592 0.581,-13.09zm-71.534,-57.6632l-17.8659,0c0,15.4322 -0.0724,30.7562 -0.0724,46.1882c0,9.823 0.5084,18.828 -1.0893,21.588c-2.6145,5.428 -9.3866,4.756 -12.4731,3.703c-3.141,-1.543 -4.7387,-3.74 -6.5906,-6.844c-0.5084,-0.89 -0.8897,-1.58 -1.0169,-1.634c-4.8475,2.959 -9.6771,5.936 -14.5248,8.896c2.415,4.956 5.9733,9.259 10.5305,12.055c6.8084,4.085 15.959,5.338 25.5273,3.141c6.2275,-1.815 11.6014,-5.574 14.4152,-11.293c4.067,-7.498 3.196,-16.576 3.16,-26.616c0.09,-16.377 0,-32.753 0,-49.1842z"/>
 </g>
</svg>