<svg width="200" height="200" xmlns="http://www.w3.org/2000/svg">
 <title>Logomark</title>

 <g>
  <title>Layer 1</title>
  <path stroke="null" d="m196.54592,46.63424a3.12257,3.12257 0 0 1 0.10808,0.80669l0,42.34961a3.08784,3.08784 0 0 1 -1.55163,2.67869l-35.5448,20.4646l0,40.56253c0,1.1039 -0.58669,2.12288 -1.54391,2.67869l-74.19673,42.71243c-0.16983,0.0965 -0.3551,0.15825 -0.54037,0.22387c-0.06947,0.02316 -0.1351,0.06561 -0.20843,0.08491a3.10713,3.10713 0 0 1 -1.58252,0c-0.08491,-0.02316 -0.16211,-0.06947 -0.24316,-0.10036c-0.16983,-0.06175 -0.34738,-0.1158 -0.50949,-0.20843l-74.18129,-42.71243a3.0917,3.0917 0 0 1 -1.55163,-2.67869l0,-127.04884c0,-0.2779 0.0386,-0.54809 0.10808,-0.81055c0.02316,-0.08877 0.07719,-0.16983 0.10808,-0.2586c0.05789,-0.16211 0.11194,-0.32808 0.19685,-0.47862c0.05789,-0.10036 0.14281,-0.18141 0.21229,-0.27404c0.08877,-0.12352 0.16983,-0.25088 0.27404,-0.35896c0.08877,-0.08877 0.20457,-0.15439 0.30493,-0.23158c0.11194,-0.09263 0.21229,-0.19299 0.33966,-0.26632l0.00386,0l37.09258,-21.35622a3.09555,3.09555 0 0 1 3.08784,0l37.09258,21.35622l0.00772,0c0.12352,0.07719 0.22773,0.17369 0.33966,0.26246c0.10036,0.07719 0.21229,0.14667 0.30107,0.23158c0.10808,0.11194 0.18527,0.2393 0.2779,0.36282c0.06561,0.09263 0.15439,0.17369 0.20843,0.27404c0.08877,0.15439 0.13895,0.31651 0.20071,0.47862c0.03088,0.08877 0.08491,0.16983 0.10808,0.26246a3.12257,3.12257 0 0 1 0.10808,0.80669l0,79.35341l30.90919,-17.79749l0,-40.56639c0,-0.27018 0.0386,-0.54423 0.10808,-0.80283c0.02702,-0.09263 0.07719,-0.17369 0.10808,-0.26246c0.06175,-0.16211 0.1158,-0.32808 0.20071,-0.47862c0.05789,-0.10036 0.14281,-0.18141 0.20843,-0.27404c0.09263,-0.12352 0.16983,-0.25088 0.2779,-0.35896c0.08877,-0.08877 0.20071,-0.15439 0.30107,-0.23158c0.1158,-0.09263 0.21615,-0.19299 0.33966,-0.26632l0.00386,0l37.09644,-21.35622a3.0917,3.0917 0 0 1 3.08784,0l37.09258,21.35622c0.13124,0.07719 0.23158,0.17369 0.34738,0.26246c0.0965,0.07719 0.20843,0.14667 0.29721,0.23158c0.10808,0.11194 0.18527,0.2393 0.2779,0.36282c0.06947,0.09263 0.15439,0.17369 0.20843,0.27404c0.08877,0.15053 0.13895,0.31651 0.20071,0.47862c0.03474,0.08877 0.08491,0.16983 0.10808,0.26246l-0.00006,0.00002zm-6.07531,41.36923l0,-35.21672l-12.98047,7.47255l-17.93259,10.32494l0,35.21672l30.91691,-17.79749l-0.00386,0l0.00001,0zm-37.09258,63.70583l0,-35.23988l-17.63924,10.07405l-50.37025,28.74772l0,35.57182l68.00949,-39.15371l0,0.00001zm-142.19465,-119.91594l0,119.91594l68.00177,39.14985l0,-35.5641l-35.5255,-20.10564l-0.01158,-0.00772l-0.01544,-0.00772c-0.11966,-0.06947 -0.22001,-0.16983 -0.33194,-0.25474c-0.0965,-0.07719 -0.20843,-0.13895 -0.29335,-0.22387l-0.00772,-0.01158c-0.10036,-0.0965 -0.16983,-0.21615 -0.25474,-0.32422c-0.07719,-0.10422 -0.16983,-0.19299 -0.23158,-0.30107l-0.00386,-0.01158c-0.06947,-0.1158 -0.11194,-0.25474 -0.16211,-0.38598c-0.05017,-0.1158 -0.1158,-0.22387 -0.14667,-0.34738l0,-0.00386c-0.0386,-0.14667 -0.04632,-0.30107 -0.06175,-0.45159c-0.01544,-0.1158 -0.04632,-0.23158 -0.04632,-0.34738l0,-0.00772l0,-82.91214l-17.92873,-10.3288l-12.98047,-7.46483l0,-0.00386l0,-0.00001zm34.00475,-23.13558l-30.90533,17.78977l30.89761,17.78977l30.90147,-17.79363l-30.90147,-17.78591l0.00772,0zm16.07217,111.02299l17.92873,-10.32108l0,-77.56634l-12.98047,7.47255l-17.93259,10.32494l0,77.56634l12.98433,-7.47641zm95.20943,-90.0296l-30.90147,17.78977l30.90147,17.78977l30.89761,-17.79363l-30.89761,-17.78591zm-3.0917,40.93307l-17.93259,-10.32494l-12.98047,-7.47255l0,35.21672l17.92873,10.32108l12.98433,7.47641l0,-35.21672zm-71.10505,79.36113l45.32551,-25.87603l22.65697,-12.9303l-30.87831,-17.77819l-35.55252,20.46846l-32.40293,18.65436l30.8513,17.46169l-0.00001,0.00001z" fill="#000000" fill-rule="evenodd" id="svg_1"/>
 </g>
</svg>