<svg width="317" height="226" xmlns="http://www.w3.org/2000/svg" fill="none">

 <g>
  <title>Layer 1</title>
  <rect id="svg_1" fill="none" height="226" width="317"/>
  <path id="svg_2" fill="#000000" d="m158.5,195.357c87.537,0 158.5,-37.016 158.5,-82.678c0,-45.6625 -70.963,-82.679 -158.5,-82.679c-87.5371,0 -158.5,37.0165 -158.5,82.679c0,45.662 70.9629,82.678 158.5,82.678z"/>
  <path stroke="null" id="svg_3" fill="#ffffff" d="m44.51,161.633l17.3706,-88.118l40.1664,0c17.369,1.0882 26.054,9.7903 26.054,25.0218c0,26.1092 -20.626,41.3392 -39.0823,40.2512l-19.5388,0l-4.3426,22.845l-20.6273,0zm29.3113,-39.163l5.4287,-32.6366l14.1126,0c7.5994,0 13.0264,3.2635 13.0264,9.7904c-1.084,18.4952 -9.7697,21.7582 -19.5397,22.8462l-13.0267,0l-0.0013,0zm50.2447,16.318l17.369,-88.1171l20.627,0l-4.342,22.8441l19.54,0c17.37,1.0882 23.884,9.7903 21.713,20.6701l-7.599,44.6029l-21.712,0l7.599,-40.2512c1.085,-5.4399 1.085,-8.7034 -6.513,-8.7034l-16.285,0l-9.77,48.9546l-20.627,0l0,0zm65.917,22.845l17.369,-88.118l40.168,0c17.37,1.0882 26.056,9.7903 26.056,25.0218c0,26.1092 -20.628,41.3392 -39.083,40.2512l-19.541,0l-4.343,22.845l-20.626,0l0,0zm29.31,-39.163l5.429,-32.6366l14.114,0c7.599,0 13.026,3.2635 13.026,9.7904c-1.084,18.4952 -9.77,21.7582 -19.54,22.8462l-13.028,0l-0.001,0z" clip-rule="evenodd" fill-rule="evenodd"/>
 </g>
</svg>